<svg xmlns="http://www.w3.org/2000/svg"><defs>
        <style>
            .cls-1,.cls-2{fill:#070707}.cls-2{fill-rule:evenodd}
        </style>
    
        <style>
            .cls-1{fill:#a2a4a8}
        </style>
    
        <style>
            .cls-1{fill:#a2a4a8}
        </style>
    
        <style>
            .cls-1{fill:#666}
        </style>
    
        <style>
            .cls-1{fill:#a2a4a8}
        </style>
    </defs><symbol id="icon-arrow-left" viewBox="0 0 10 14">
    <title>
        Rectangle 21 copy
    </title>
    <path d="M.985 7.237l5.84 5.777 2.189-2.166L5.125 7l3.889-3.848L6.825.986.985 6.763l.24.237z"/>
</symbol><symbol id="icon-arrow-right" viewBox="0 0 8 13">
    <title>
        Rectangle 21
    </title>
    <path d="M7.889 6.732l-5.657 5.657-2.121-2.121L3.879 6.5.111 2.732 2.232.611l5.657 5.657-.232.232z"/>
</symbol><symbol id="icon-arrow-slider" viewBox="0 0 38.51 12.03">
    
    <title>
        Arrow (slider)
    </title>
    <path class="cls-1" d="M0 5.01h36v2H0z"/>
    <path class="cls-2" d="M38.51 6.25L32.68 12l-2.19-2.14L34.37 6l-3.88-3.83L32.68 0l5.84 5.78-.25.22z"/>
</symbol><symbol id="icon-fb" viewBox="0 0 200.72 430.11">
    
    <title>
        facebook
    </title>
    <path id="Facebook" class="cls-1" d="M158.08 83.3v59.22H114.7v72.41h43.38v215.18h89.12V214.94H307s5.6-34.72 8.32-72.68h-67.78V92.74c0-7.4 9.72-17.35 19.32-17.35h48.56V0h-66c-93.54 0-91.34 72.48-91.34 83.3z" transform="translate(-114.7)"/>
</symbol><symbol id="icon-insta-original" viewBox="0 0 169.06 169.06">
    <title>
        instagram
    </title>
    <path class="cls-1" fill="currentColor" d="M122.41 0H46.65A46.71 46.71 0 0 0 0 46.65v75.75a46.71 46.71 0 0 0 46.65 46.65h75.75a46.71 46.71 0 0 0 46.66-46.65V46.65A46.71 46.71 0 0 0 122.41 0z"/>
    <path class="cls-2" fill="#fff" d="M84.53 41a43.56 43.56 0 1 0 43.56 43.56A43.61 43.61 0 0 0 84.53 41zm0 72.12a28.56 28.56 0 1 1 28.56-28.56 28.59 28.59 0 0 1-28.56 28.53z"/>
    <path class="cls-2" fill="#fff" d="M139.92 28.25a11 11 0 1 0 7.78 3.22 11 11 0 0 0-7.78-3.22z"/>
</symbol><symbol id="icon-logo" viewBox="0 0 167.07 58.3">
    <title>
        logo
    </title>
    <path d="M163.7 3.37v35.56H3.37V3.37zM167.07 0H0v42.31h167.07z"/>
    <path d="M12.84 12.84h7c1.25 0 4.19 0 5.75 1.58A5.3 5.3 0 0 1 27 18.33a5.23 5.23 0 0 1-2 4.5 9.07 9.07 0 0 1-5.09 1.27h-3.1v5.37h-3.97zM16.77 21h2.61a4.67 4.67 0 0 0 2.76-.64 2.34 2.34 0 0 0 .71-1.93 2.57 2.57 0 0 0-.59-1.81 4.16 4.16 0 0 0-2.87-.75h-2.62z"/>
    <path d="M31.49 27.75a9 9 0 0 1-2.49-6.6 9 9 0 0 1 2.45-6.6 7.75 7.75 0 0 1 5.63-2.12 7.75 7.75 0 0 1 5.63 2.12 9 9 0 0 1 2.45 6.6 9 9 0 0 1-2.45 6.6 7.75 7.75 0 0 1-5.63 2.12 7.75 7.75 0 0 1-5.63-2.12zm8.74-2.94a6.48 6.48 0 0 0 .92-3.65 6.48 6.48 0 0 0-.92-3.65 3.85 3.85 0 0 0-6.22 0 6.48 6.48 0 0 0-.92 3.65A6.48 6.48 0 0 0 34 24.8a3.85 3.85 0 0 0 6.22 0z"/>
    <path d="M48.51 12.84h7c1.39 0 3.63.07 5.16 1.25A4.59 4.59 0 0 1 62.41 18 4.65 4.65 0 0 1 59 22.78l3.75 6.69h-4.44l-3.23-5.89h-2.63v5.89h-3.94zm3.93 7.68h2.86a5 5 0 0 0 2-.31 1.89 1.89 0 0 0 1.11-2 2.33 2.33 0 0 0-.61-1.77 3.74 3.74 0 0 0-2.52-.57h-2.83v4.65z"/>
    <path d="M76.94 18.28a4 4 0 0 0-1.41-1.79 3.67 3.67 0 0 0-4.81.59 6.24 6.24 0 0 0-1.22 4.1 6.11 6.11 0 0 0 1 3.82 3.59 3.59 0 0 0 3 1.46 3.46 3.46 0 0 0 2.5-.9 4.25 4.25 0 0 0 1-1.46l3.13 1.55a8.56 8.56 0 0 1-2.83 3.16 7.6 7.6 0 0 1-4.05 1.08 7.36 7.36 0 0 1-6-2.66 9.57 9.57 0 0 1-1.86-6.05 8.88 8.88 0 0 1 2.26-6.36 7.68 7.68 0 0 1 5.77-2.36 6.88 6.88 0 0 1 4.88 1.79 7.66 7.66 0 0 1 1.7 2.4l-3.09 1.62z"/>
    <path d="M83.44 12.84H95.5v3.23h-8.13v3.08h7.3v3.11h-7.3v4h8.86v3.23H83.44V12.84z"/>
    <path d="M100.32 12.84h3.94v13.24h6.36v3.39h-10.3V12.84z"/>
    <path d="M112.78 29.47l6.05-16.63H123l6.05 16.63h-4.26l-.79-2.62h-6l-.9 2.61zM123 23.79l-2-6.59-2.07 6.6z"/>
    <path d="M131.64 29.47V12.84h3.91v16.63z"/>
    <path d="M140.29 12.84h4.14l6.36 11.54-.33-11.54h3.77v16.63h-4.12l-6.39-11.4.34 11.4h-3.77V12.84z"/>
    <path d="M13 56.54l1.56-4.75a9.19 9.19 0 0 1-.06 1.41.93.93 0 0 0 0 .47v2.87h1.2v-6.07h-1.76l-1.52 4.64L11 50.47H9.2v6.07h1.15v-2.83q0-.49-.08-1.94l1.46 4.76zm8.61-1.06h-2.25v-1.57h2.05v-1.06h-2.05v-1.33h2.21v-1.05h-3.5v6.07h3.49v-1.07zM23 58.3h1.2v-1.76H28v1.76h1.24v-2.84h-.81v-5H24.9a16.5 16.5 0 0 1-.52 2.59 14.28 14.28 0 0 1-1 2.41H23zm4.19-6.77v3.93h-2.41a15.49 15.49 0 0 0 1.14-3.93zm3.88 5h1.55l2.81-4.65q-.07 1.15-.07 1.73v2.91h1.15v-6.05H35l-2.8 4.61v-4.61H31v6.07zm12.51-6.07h-1.33v2.72a6.76 6.76 0 0 1-.83.24 3.41 3.41 0 0 1-.68.07.9.9 0 0 1-.69-.22 1 1 0 0 1-.2-.66v-2.14h-1.29V53a1.48 1.48 0 0 0 .44 1.15 2 2 0 0 0 1.34.42 4.46 4.46 0 0 0 .81-.08 8 8 0 0 0 1.06-.29v2.34h1.29v-6.07zm7.35 0H49.6v2.38h-2.4v-2.37h-1.29v6.07h1.29v-2.62h2.4v2.62h1.28v-6.07zm7.48 6.07l-2.15-6.09h-1.62l-2.14 6.1h1.39l.44-1.44h2.21l.46 1.44zM54.65 54q.65-2.1.78-2.63a1.14 1.14 0 0 0 .11.41l.69 2.22zM63 50.47v6.07h1.29v-5h2.55v-1.07zm6.91 1.05h.59a1.16 1.16 0 0 1 .77.22.84.84 0 0 1 .25.67.82.82 0 0 1-.29.68 1.41 1.41 0 0 1-.89.23h-.42v-1.8zm2.33-.58a2.58 2.58 0 0 0-1.68-.48h-1.9v6.07H70v-2.15h.55a2.62 2.62 0 0 0 1.74-.52 1.85 1.85 0 0 0 .61-1.5 1.73 1.73 0 0 0-.57-1.42zm6-.48L77 53.63l-.07.21-1.49-3.38h-1.36l2.1 4.36a1.17 1.17 0 0 1-.35.55.9.9 0 0 1-.56.16 2.41 2.41 0 0 1-.91-.15v1.1a3.6 3.6 0 0 0 1 .12 2.73 2.73 0 0 0 1-.17 1.93 1.93 0 0 0 .73-.52 4.66 4.66 0 0 0 .66-1.16l1.88-4.29zm7.74 0h-4.8v6.07h1.29v-5h2.23v5H86v-6.06zm7.48 6.07l-2.15-6.09H89.8l-2.14 6.09H89l.44-1.44h2.26l.44 1.44zM89.81 54q.65-2.1.78-2.63a2 2 0 0 0 .11.41l.69 2.22zm12-3.22a2.71 2.71 0 0 0-1.58-.42 4.86 4.86 0 0 0-1.29.16 3.79 3.79 0 0 0-1.1.5l.56.86a3.09 3.09 0 0 1 1.65-.49 1.5 1.5 0 0 1 .83.18.57.57 0 0 1 .28.5.63.63 0 0 1-.44.61 3.93 3.93 0 0 1-1.4.18h-.51v1h.57a3.78 3.78 0 0 1 1.46.22.68.68 0 0 1 .49.62q0 .89-1.53.89a5 5 0 0 1-1-.11 3.91 3.91 0 0 1-.92-.29v1.08a5.81 5.81 0 0 0 2.15.33 3.18 3.18 0 0 0 1.88-.49 1.54 1.54 0 0 0 .68-1.32 1.23 1.23 0 0 0-.45-1 2.3 2.3 0 0 0-1.28-.46 2.05 2.05 0 0 0 1.13-.49 1.26 1.26 0 0 0 .41-1 1.28 1.28 0 0 0-.59-1.09zm8.56-.33h-1.05l-2 1.56.62.77.7-.56.44-.42v4.72h1.28v-6.07zm6.48 1.16a2 2 0 0 0-.77-.92 2.17 2.17 0 0 0-1.18-.32 2 2 0 0 0-1.51.57 2.11 2.11 0 0 0-.55 1.54 2 2 0 0 0 .46 1.41 1.59 1.59 0 0 0 1.25.51 1.75 1.75 0 0 0 .79-.16 1.42 1.42 0 0 0 .56-.55 2.61 2.61 0 0 1-.25 1.11 1.33 1.33 0 0 1-.63.59 2.56 2.56 0 0 1-1.06.19 3 3 0 0 1-.73-.09v1a4.3 4.3 0 0 0 .82.06 2.84 2.84 0 0 0 2.29-.88 4 4 0 0 0 .76-2.67 3.46 3.46 0 0 0-.27-1.43zm-1.26.14a1.34 1.34 0 0 1 .26.83.78.78 0 0 1-.28.59 1 1 0 0 1-.67.26.74.74 0 0 1-.62-.26 1.1 1.1 0 0 1-.2-.7 1.22 1.22 0 0 1 .22-.79.76.76 0 0 1 .62-.27.8.8 0 0 1 .66.34zm7-.14a2 2 0 0 0-.77-.92 2.17 2.17 0 0 0-1.18-.32 2 2 0 0 0-1.51.57 2.11 2.11 0 0 0-.55 1.54 2 2 0 0 0 .46 1.41 1.6 1.6 0 0 0 1.25.51 1.75 1.75 0 0 0 .79-.16 1.42 1.42 0 0 0 .56-.55h.05a2.61 2.61 0 0 1-.25 1.11 1.33 1.33 0 0 1-.64.59 2.57 2.57 0 0 1-1.06.19 3 3 0 0 1-.73-.09v1a4.29 4.29 0 0 0 .82.06 2.84 2.84 0 0 0 2.29-.88 4 4 0 0 0 .76-2.68 3.46 3.46 0 0 0-.27-1.43zm-1.26.14a1.34 1.34 0 0 1 .26.83.78.78 0 0 1-.28.59 1 1 0 0 1-.67.26.74.74 0 0 1-.62-.26 1.1 1.1 0 0 1-.2-.7 1.21 1.21 0 0 1 .22-.79.76.76 0 0 1 .62-.27.8.8 0 0 1 .66.34zm4.6 1h-.14l.11-1.19h2.1v-1.09h-3.29l-.23 3.09.51.27.43-.09a3 3 0 0 1 .49 0q1.22 0 1.22.92t-1.18 1a3.68 3.68 0 0 1-1.59-.39v1.11a3.51 3.51 0 0 0 1.64.33 2.64 2.64 0 0 0 1.79-.55 2 2 0 0 0 .63-1.56 1.78 1.78 0 0 0-.52-1.35 2 2 0 0 0-1.4-.49 2.86 2.86 0 0 0-.63.06zm8.89-1.2h.59a1.16 1.16 0 0 1 .77.22.84.84 0 0 1 .25.67.82.82 0 0 1-.29.68 1.41 1.41 0 0 1-.89.23h-.42v-1.8zm2.33-.58a2.58 2.58 0 0 0-1.68-.48h-1.94v6.07h1.29v-2.18h.55a2.62 2.62 0 0 0 1.74-.52 1.85 1.85 0 0 0 .61-1.5 1.73 1.73 0 0 0-.58-1.42zm7.34.23a2.76 2.76 0 0 0-2.14-.81 2.8 2.8 0 0 0-2.15.8 3.26 3.26 0 0 0-.75 2.31 3.31 3.31 0 0 0 .75 2.32 3.24 3.24 0 0 0 4.28 0 4 4 0 0 0 0-4.63zm-3.3.78a1.36 1.36 0 0 1 1.16-.52q1.53 0 1.53 2.05t-1.54 2a1.35 1.35 0 0 1-1.15-.51 3.22 3.22 0 0 1 0-3.07zM150 53.4l2.21-2.91h-1.41l-2.17 2.94v-3h-1.29v6.07h1.29v-3.04l2.2 3.08h1.46L150 53.39zm7.4-2.91l-1.25 3.17-.07.21-1.49-3.38h-1.36l2.1 4.36a1.17 1.17 0 0 1-.35.55.9.9 0 0 1-.56.16 2.42 2.42 0 0 1-.91-.15v1.1a3.6 3.6 0 0 0 1 .12 2.74 2.74 0 0 0 1-.17 1.93 1.93 0 0 0 .73-.52 4.66 4.66 0 0 0 .66-1.16l1.88-4.29z"/>
    <path d="M158.37 6.54a2 2 0 0 0-2.13 2.11 2.13 2.13 0 0 0 4.25 0 2 2 0 0 0-1.88-2.11h-.24zm0 3.82a1.59 1.59 0 0 1-1.68-1.71 1.69 1.69 0 0 1 3.37 0 1.59 1.59 0 0 1-1.46 1.71h-.23zm1-2.11c0-.45-.35-.73-.87-.73h-.94v2.3h.44V9h.42l.55.83h.47l-.61-.83a.7.7 0 0 0 .56-.7zM158 7.84h.52c.3 0 .46.14.46.42s-.16.42-.46.42H158z"/>
</symbol><symbol id="icon-rect-bot" viewBox="0 0 13 3">
    <title>
        Rectangle 28 copy 2
    </title>
    <path d="M0 3V0h13v3z"/>
</symbol><symbol id="icon-rect" viewBox="0 0 3 13">
    <title>
        Rectangle 19 copy 8
    </title>
    <path d="M0 13V0h3v13z"/>
</symbol><symbol id="icon-tw" viewBox="0 0 612 497.12">
    
    <title>
        twitter
    </title>
    <path class="cls-1" d="M612 116.26A250.71 250.71 0 0 1 539.91 136a126.07 126.07 0 0 0 55.19-69.38 253.1 253.1 0 0 1-79.78 30.48 125.64 125.64 0 0 0-213.93 114.46A356.43 356.43 0 0 1 42.64 80.39 125.69 125.69 0 0 0 81.5 248a125.56 125.56 0 0 1-56.87-15.76v1.57a125.67 125.67 0 0 0 100.69 123.1 127.17 127.17 0 0 1-33.08 4.4 120.5 120.5 0 0 1-23.63-2.33 125.61 125.61 0 0 0 117.25 87.19A251.89 251.89 0 0 1 29.94 499.8 266.81 266.81 0 0 1 0 498.07a354.88 354.88 0 0 0 192.44 56.49c230.95 0 357.19-191.29 357.19-357.19l-.42-16.25A250.7 250.7 0 0 0 612 116.26z" transform="translate(0 -57.44)"/>
</symbol><symbol id="icon-vintage" viewBox="0 0 60 12.94">
    
    <title>
        logo_vintage
    </title>
    <path class="cls-1" d="M2.34.09H0l.56 2.16h2.35L2.34.09z"/>
    <path class="cls-1" d="M10.59.09h2.44v12.56h-2.44z"/>
    <path class="cls-1" d="M21.38 7.5L18.09.09h-2.62v12.57h2.16V4.59l3.65 8.07h2.35V.09h-2.25V7.5z"/>
    <path class="cls-1" d="M33.19.09h-7.97v2.16h2.72v10.41h2.44V2.25h2.81V.09z"/>
    <path class="cls-1" d="M36.19.09l-3.1 12.57h2.34l.66-2.66h3.28l.56 2.62h2.25L39.19.09h-3zm.28 7.78l1.22-5.06 1.13 5.06z"/>
    <path class="cls-1" d="M47.34 2.06c.84 0 1.5.56 1.5 2.16h2.44C51.19 1.41 49.87 0 47.44 0S43.5 1.13 43.5 4.22v4.5c0 3.09 1.59 4.22 3.94 4.22a2.9 2.9 0 0 0 2.25-1.22l.38 1h1.22V6.28h-4.13v2h1.69V9c0 1-.56 1.78-1.41 1.78s-1.6-.37-1.6-1.78V3.94c-.09-1.5.57-1.88 1.5-1.88z"/>
    <path class="cls-1" d="M55.69 10.5V7.22h3.19V5.06h-3.19V2.25h4.12V.09h-6.56v12.57H60V10.5h-4.31z"/>
    <path class="cls-1" d="M6.84.09L3.66 12.66h2.25L9.09.09H6.84z"/>
</symbol><symbol id="icon-yt" viewBox="0 0 90 63">
    
    <title>
        youtube
    </title>
    <path id="YouTube_alt_" data-name="YouTube (alt)" class="cls-1" d="M90 27a13.45 13.45 0 0 0-13.45-13.5h-63.1A13.45 13.45 0 0 0 0 27v36a13.45 13.45 0 0 0 13.45 13.5h63.1A13.45 13.45 0 0 0 90 63zM36 60.22V26.33l25.7 16.95z" transform="translate(0 -13.5)"/>
</symbol></svg>