<svg xmlns="http://www.w3.org/2000/svg" width="41.59" height="45.44" viewBox="0 0 41.59 45.44"><title>Ресурс 1</title><path d="M39.48,11.11q0-.34-.07-.67t-.08-.65q0-.32-.08-.63t-.09-.61q0-.3-.09-.58T39,7.42l-.11-.53-.11-.5-.12-.47-.13-.44-.13-.41-.14-.38-.15-.34L37.91,4l-.16-.27-.17-.23a4.05,4.05,0,0,0-1-.81A9.25,9.25,0,0,0,35.14,2a18,18,0,0,0-1.86-.6c-.68-.18-1.42-.35-2.2-.5S29.48.65,28.62.54,26.87.33,26,.25,24.11.11,23.17.07,21.27,0,20.32,0s-1.9,0-2.84,0-1.86.08-2.76.15-1.78.16-2.61.27-1.64.23-2.4.38-1.46.31-2.11.5A14.42,14.42,0,0,0,5.83,2a7.13,7.13,0,0,0-1.34.74,3.16,3.16,0,0,0-.84.86l-.14.24-.13.28-.13.32-.12.35L3,5.12l-.11.41L2.79,6l-.1.47-.1.5-.09.53L2.41,8l-.09.58-.08.6-.08.62-.07.64L2,11.12l-.21,0-.2.05-.2.07-.19.09-.18.1-.17.12-.16.13-.14.14L.46,12l-.12.17-.1.18-.08.19q0,.1-.07.2T0,13t0,.21,0,.22v4.44q0,.09,0,.18t0,.18,0,.17l0,.17.06.16.07.16L.33,19l.09.14.1.14.11.13.12.12.13.11.14.1.15.09.15.08L1.5,20q0,.66,0,1.31t0,1.32q0,.66,0,1.31t0,1.3q0,.65,0,1.28t0,1.26q0,.62,0,1.24t0,1.2q0,.59,0,1.16t0,1.12q0,.55,0,1.07t0,1q0,.49,0,.95t0,.88q0,.42.05.8t.06.72c0,.18,0,.34,0,.49a3.92,3.92,0,0,0,.06.42,2.91,2.91,0,0,0,.09.35,2.21,2.21,0,0,0,.12.29,1.76,1.76,0,0,0,.14.24,1.49,1.49,0,0,0,.16.19l.17.14.18.11.18.07.17,0,.16,0h2.2v3a1.73,1.73,0,0,0,.06.44,1.79,1.79,0,0,0,.07.21,1.88,1.88,0,0,0,.09.2l.12.19.14.18.16.17.18.15.2.14.21.12.23.11.24.09.25.07.26.05.27,0h.56l.27,0L9,45.34l.25-.07.24-.09.23-.11.21-.12.2-.14.18-.15.16-.17.14-.18.12-.19a1.88,1.88,0,0,0,.09-.2,1.79,1.79,0,0,0,.07-.21,1.73,1.73,0,0,0,.06-.44v-3H31.48v3a1.74,1.74,0,0,0,.06.44,1.79,1.79,0,0,0,.07.21,1.88,1.88,0,0,0,.09.2l.12.19.14.18.16.17.18.15.2.14.21.12.23.11.24.09.25.07.26.05.27,0h.56l.27,0,.26-.05.25-.07.24-.09.23-.11.21-.12.2-.14.18-.15.16-.17.14-.18.12-.19a1.88,1.88,0,0,0,.09-.2,1.79,1.79,0,0,0,.07-.21,1.73,1.73,0,0,0,.06-.44v-3h1.49l.21,0,.21,0,.21-.06.2-.08.18-.1.16-.13a1,1,0,0,0,.13-.16.92.92,0,0,0,.09-.19,1.05,1.05,0,0,0,0-.23q0-.34,0-.73t0-.83q0-.44,0-.91t0-1V34.69q0-.55,0-1.14t0-1.2q0-.61,0-1.25t0-1.3q0-.66,0-1.34t0-1.37q0-.69,0-1.4t0-1.41q0-.71,0-1.42t0-1.43q0-.71,0-1.42l.17-.06.16-.07.16-.09.15-.1.14-.11.13-.12.12-.13.11-.14.1-.15.09-.15.08-.16.07-.17.05-.18q0-.09,0-.18t0-.19,0-.19V13.38q0-.11,0-.22t0-.22-.05-.21-.07-.2l-.09-.19-.1-.18L41.11,12,41,11.83l-.15-.15-.16-.13-.17-.12-.18-.1-.19-.08-.2-.07-.21,0ZM10.25,4.2H31V7.34H10.25V4.2Zm.3,32.47a2.95,2.95,0,1,1,2.08-.86A2.94,2.94,0,0,1,10.55,36.67Zm20.33,0A2.95,2.95,0,1,1,33,35.8,2.94,2.94,0,0,1,30.87,36.67Zm3.75-12.9h-28V9.08h28V23.77Z"/></svg>