<svg xmlns="http://www.w3.org/2000/svg" width="167.07" height="58.3" viewBox="0 0 167.07 58.3"><title>logo</title><path d="M163.7,3.37V38.93H3.37V3.37ZM167.07,0H0V42.31H167.07Z"/><path d="M12.84,12.84h7c1.25,0,4.19,0,5.75,1.58A5.3,5.3,0,0,1,27,18.33a5.23,5.23,0,0,1-2,4.5,9.07,9.07,0,0,1-5.09,1.27h-3.1v5.37H12.84ZM16.77,21h2.61a4.67,4.67,0,0,0,2.76-.64,2.34,2.34,0,0,0,.71-1.93,2.57,2.57,0,0,0-.59-1.81,4.16,4.16,0,0,0-2.87-.75H16.77Z"/><path d="M31.49,27.75A9,9,0,0,1,29,21.15a9,9,0,0,1,2.45-6.6,7.75,7.75,0,0,1,5.63-2.12,7.75,7.75,0,0,1,5.63,2.12,9,9,0,0,1,2.45,6.6,9,9,0,0,1-2.45,6.6,7.75,7.75,0,0,1-5.63,2.12,7.75,7.75,0,0,1-5.63-2.12Zm8.74-2.94a6.48,6.48,0,0,0,.92-3.65,6.48,6.48,0,0,0-.92-3.65,3.85,3.85,0,0,0-6.22,0,6.48,6.48,0,0,0-.92,3.65A6.48,6.48,0,0,0,34,24.8a3.85,3.85,0,0,0,6.22,0Z"/><path d="M48.51,12.84h7c1.39,0,3.63.07,5.16,1.25A4.59,4.59,0,0,1,62.41,18,4.65,4.65,0,0,1,59,22.78l3.75,6.69H58.31l-3.23-5.89H52.45v5.89H48.51Zm3.93,7.68H55.3a5,5,0,0,0,2-.31,1.89,1.89,0,0,0,1.11-2,2.33,2.33,0,0,0-.61-1.77,3.74,3.74,0,0,0-2.52-.57H52.45v4.65Z"/><path d="M76.94,18.28a4,4,0,0,0-1.41-1.79,3.67,3.67,0,0,0-4.81.59,6.24,6.24,0,0,0-1.22,4.1,6.11,6.11,0,0,0,1,3.82,3.59,3.59,0,0,0,3,1.46,3.46,3.46,0,0,0,2.5-.9,4.25,4.25,0,0,0,1-1.46l3.13,1.55a8.56,8.56,0,0,1-2.83,3.16,7.6,7.6,0,0,1-4.05,1.08,7.36,7.36,0,0,1-6-2.66,9.57,9.57,0,0,1-1.86-6.05,8.88,8.88,0,0,1,2.26-6.36,7.68,7.68,0,0,1,5.77-2.36,6.88,6.88,0,0,1,4.88,1.79,7.66,7.66,0,0,1,1.7,2.4l-3.09,1.62Z"/><path d="M83.44,12.84H95.5v3.23H87.37v3.08h7.3v3.11h-7.3v4h8.86v3.23H83.44V12.84Z"/><path d="M100.32,12.84h3.94V26.08h6.36v3.39h-10.3V12.84Z"/><path d="M112.78,29.47l6.05-16.63H123l6.05,16.63h-4.26L124,26.85H118l-.9,2.61ZM123,23.79l-2-6.59-2.07,6.6Z"/><path d="M131.64,29.47V12.84h3.91V29.47Z"/><path d="M140.29,12.84h4.14l6.36,11.54-.33-11.54h3.77V29.47h-4.12l-6.39-11.4.34,11.4h-3.77V12.84Z"/><path d="M13,56.54l1.56-4.75h0a9.19,9.19,0,0,1-.06,1.41.93.93,0,0,0,0,.47v2.87h1.2V50.47H13.94l-1.52,4.64h0L11,50.47H9.2v6.07h1.15V53.71q0-.49-.08-1.94h0l1.46,4.76Zm8.61-1.06H19.36V53.91h2.05V52.85H19.36V51.52h2.21V50.47h-3.5v6.07h3.49V55.47ZM23,58.3h1.2V56.54H28V58.3h1.24V55.46h-.81v-5H24.9a16.5,16.5,0,0,1-.52,2.59,14.28,14.28,0,0,1-1,2.41H23Zm4.19-6.77v3.93H24.78a15.49,15.49,0,0,0,1.14-3.93Zm3.88,5h1.55l2.81-4.65h0q-.07,1.15-.07,1.73v2.91h1.15V50.47H35l-2.8,4.61h0V50.47H31v6.07Zm12.51-6.07H42.25v2.72a6.76,6.76,0,0,1-.83.24,3.41,3.41,0,0,1-.68.07.9.9,0,0,1-.69-.22,1,1,0,0,1-.2-.66V50.47H38.56V53A1.48,1.48,0,0,0,39,54.15a2,2,0,0,0,1.34.42,4.46,4.46,0,0,0,.81-.08,8,8,0,0,0,1.06-.29v2.34H43.5V50.47Zm7.35,0H49.6v2.38H47.2V50.47H45.91v6.07H47.2V53.92h2.4v2.62h1.28V50.47Zm7.48,6.07-2.15-6.09H54.64l-2.14,6.1h1.39l.44-1.44h2.21L57,56.54ZM54.65,54q.65-2.1.78-2.63a1.14,1.14,0,0,0,.11.41L56.23,54ZM63,50.47v6.07h1.29v-5h2.55V50.47Zm6.91,1.05h.59a1.16,1.16,0,0,1,.77.22.84.84,0,0,1,.25.67.82.82,0,0,1-.29.68,1.41,1.41,0,0,1-.89.23h-.42v-1.8Zm2.33-.58a2.58,2.58,0,0,0-1.68-.48h-1.9v6.07H70V54.38h.55a2.62,2.62,0,0,0,1.74-.52,1.85,1.85,0,0,0,.61-1.5,1.73,1.73,0,0,0-.57-1.42Zm6-.48L77,53.63l-.07.21h0l-1.49-3.38H74.08l2.1,4.36a1.17,1.17,0,0,1-.35.55.9.9,0,0,1-.56.16,2.41,2.41,0,0,1-.91-.15v1.1a3.6,3.6,0,0,0,1,.12,2.73,2.73,0,0,0,1-.17,1.93,1.93,0,0,0,.73-.52,4.66,4.66,0,0,0,.66-1.16l1.88-4.29Zm7.74,0h-4.8v6.07h1.29v-5H84.7v5H86V50.47Zm7.48,6.07-2.15-6.09H89.8l-2.14,6.09H89l.44-1.44H91.7l.44,1.44ZM89.81,54q.65-2.1.78-2.63a2,2,0,0,0,.11.41L91.39,54Zm12-3.22a2.71,2.71,0,0,0-1.58-.42,4.86,4.86,0,0,0-1.29.16,3.79,3.79,0,0,0-1.1.5l.56.86a3.09,3.09,0,0,1,1.65-.49,1.5,1.5,0,0,1,.83.18.57.57,0,0,1,.28.5.63.63,0,0,1-.44.61,3.93,3.93,0,0,1-1.4.18h-.51v1h.57a3.78,3.78,0,0,1,1.46.22.68.68,0,0,1,.49.62q0,.89-1.53.89a5,5,0,0,1-1-.11,3.91,3.91,0,0,1-.92-.29v1.08a5.81,5.81,0,0,0,2.15.33,3.18,3.18,0,0,0,1.88-.49,1.54,1.54,0,0,0,.68-1.32,1.23,1.23,0,0,0-.45-1,2.3,2.3,0,0,0-1.28-.46h0a2.05,2.05,0,0,0,1.13-.49,1.26,1.26,0,0,0,.41-1,1.28,1.28,0,0,0-.59-1.09Zm8.56-.33h-1.05l-2,1.56.62.77.7-.56.44-.42v4.72h1.28V50.45Zm6.48,1.16a2,2,0,0,0-.77-.92,2.17,2.17,0,0,0-1.18-.32,2,2,0,0,0-1.51.57,2.11,2.11,0,0,0-.55,1.54,2,2,0,0,0,.46,1.41,1.59,1.59,0,0,0,1.25.51,1.75,1.75,0,0,0,.79-.16,1.42,1.42,0,0,0,.56-.55h0a2.61,2.61,0,0,1-.25,1.11,1.33,1.33,0,0,1-.63.59,2.56,2.56,0,0,1-1.06.19,3,3,0,0,1-.73-.09v1a4.3,4.3,0,0,0,.82.06,2.84,2.84,0,0,0,2.29-.88A4,4,0,0,0,117.1,53a3.46,3.46,0,0,0-.27-1.43Zm-1.26.14a1.34,1.34,0,0,1,.26.83.78.78,0,0,1-.28.59,1,1,0,0,1-.67.26.74.74,0,0,1-.62-.26,1.1,1.1,0,0,1-.2-.7,1.22,1.22,0,0,1,.22-.79.76.76,0,0,1,.62-.27.8.8,0,0,1,.66.34Zm7-.14a2,2,0,0,0-.77-.92,2.17,2.17,0,0,0-1.18-.32,2,2,0,0,0-1.51.57,2.11,2.11,0,0,0-.55,1.54,2,2,0,0,0,.46,1.41,1.6,1.6,0,0,0,1.25.51,1.75,1.75,0,0,0,.79-.16,1.42,1.42,0,0,0,.56-.55h.05a2.61,2.61,0,0,1-.25,1.11,1.33,1.33,0,0,1-.64.59,2.57,2.57,0,0,1-1.06.19,3,3,0,0,1-.73-.09v1a4.29,4.29,0,0,0,.82.06,2.84,2.84,0,0,0,2.29-.88,4,4,0,0,0,.76-2.68,3.46,3.46,0,0,0-.27-1.43Zm-1.26.14a1.34,1.34,0,0,1,.26.83.78.78,0,0,1-.28.59,1,1,0,0,1-.67.26.74.74,0,0,1-.62-.26,1.1,1.1,0,0,1-.2-.7,1.21,1.21,0,0,1,.22-.79.76.76,0,0,1,.62-.27.8.8,0,0,1,.66.34Zm4.6,1h-.14l.11-1.19H128V50.47h-3.29l-.23,3.09.51.27.43-.09a3,3,0,0,1,.49,0q1.22,0,1.22.92t-1.18,1a3.68,3.68,0,0,1-1.59-.39v1.11a3.51,3.51,0,0,0,1.64.33,2.64,2.64,0,0,0,1.79-.55,2,2,0,0,0,.63-1.56,1.78,1.78,0,0,0-.52-1.35,2,2,0,0,0-1.4-.49,2.86,2.86,0,0,0-.63.06Zm8.89-1.2h.59a1.16,1.16,0,0,1,.77.22.84.84,0,0,1,.25.67.82.82,0,0,1-.29.68,1.41,1.41,0,0,1-.89.23h-.42v-1.8Zm2.33-.58a2.58,2.58,0,0,0-1.68-.48h-1.94v6.07h1.29V54.38h.55a2.62,2.62,0,0,0,1.74-.52,1.85,1.85,0,0,0,.61-1.5,1.73,1.73,0,0,0-.58-1.42Zm7.34.23a2.76,2.76,0,0,0-2.14-.81,2.8,2.8,0,0,0-2.15.8,3.26,3.26,0,0,0-.75,2.31,3.31,3.31,0,0,0,.75,2.32,3.24,3.24,0,0,0,4.28,0,4,4,0,0,0,0-4.63Zm-3.3.78a1.36,1.36,0,0,1,1.16-.52q1.53,0,1.53,2.05t-1.54,2a1.35,1.35,0,0,1-1.15-.51,3.22,3.22,0,0,1,0-3.07ZM150,53.4l2.21-2.91H150.8l-2.17,2.94v-3h-1.29v6.07h1.29V53.46l2.2,3.08h1.46L150,53.39Zm7.4-2.91-1.25,3.17-.07.21h0l-1.49-3.38h-1.36l2.1,4.36a1.17,1.17,0,0,1-.35.55.9.9,0,0,1-.56.16,2.42,2.42,0,0,1-.91-.15v1.1a3.6,3.6,0,0,0,1,.12,2.74,2.74,0,0,0,1-.17,1.93,1.93,0,0,0,.73-.52,4.66,4.66,0,0,0,.66-1.16l1.88-4.29Z"/><path d="M158.37,6.54a2,2,0,0,0-2.13,2.11,2.13,2.13,0,0,0,4.25,0,2,2,0,0,0-1.88-2.11h-.24Zm0,3.82a1.59,1.59,0,0,1-1.68-1.71,1.69,1.69,0,0,1,3.37,0,1.59,1.59,0,0,1-1.46,1.71h-.23Zm1-2.11c0-.45-.35-.73-.87-.73h-.94v2.3H158V9h.42l.55.83h.47L158.83,9a.7.7,0,0,0,.56-.7ZM158,7.84h.52c.3,0,.46.14.46.42s-.16.42-.46.42H158Z"/></svg>