<svg id="Layer_1" data-name="Layer 1" xmlns="http://www.w3.org/2000/svg" viewBox="0 0 60 12.94"><defs><style>.cls-1{fill:#666;}</style></defs><title>logo_vintage</title><polygon class="cls-1" points="2.34 0.09 0 0.09 0.56 2.25 2.91 2.25 2.34 0.09"/><rect class="cls-1" x="10.59" y="0.09" width="2.44" height="12.56"/><polygon class="cls-1" points="21.38 7.5 21.38 7.5 18.09 0.09 15.47 0.09 15.47 12.66 17.63 12.66 17.63 4.59 17.63 4.59 21.28 12.66 23.63 12.66 23.63 0.09 21.38 0.09 21.38 7.5"/><polygon class="cls-1" points="33.19 0.09 25.22 0.09 25.22 2.25 27.94 2.25 27.94 12.66 30.38 12.66 30.38 2.25 33.19 2.25 33.19 0.09"/><path class="cls-1" d="M36.19.09,33.09,12.66h2.34L36.09,10h3.28l.56,2.62h2.25L39.19.09h-3Zm.28,7.78,1.22-5.06h0l1.13,5.06Z"/><path class="cls-1" d="M47.34,2.06c.84,0,1.5.56,1.5,2.16h2.44C51.19,1.41,49.87,0,47.44,0S43.5,1.13,43.5,4.22v4.5c0,3.09,1.59,4.22,3.94,4.22a2.9,2.9,0,0,0,2.25-1.22l.38,1h1.22V6.28H47.16v2h1.69V9c0,1-.56,1.78-1.41,1.78S45.84,10.41,45.84,9V3.94C45.75,2.44,46.41,2.06,47.34,2.06Z"/><polygon class="cls-1" points="55.69 10.5 55.69 7.22 58.88 7.22 58.88 5.06 55.69 5.06 55.69 2.25 59.81 2.25 59.81 0.09 53.25 0.09 53.25 12.66 60 12.66 60 10.5 55.69 10.5"/><polygon class="cls-1" points="6.84 0.09 3.66 12.66 5.91 12.66 9.09 0.09 6.84 0.09"/></svg>