<svg id="Layer_1" data-name="Layer 1" xmlns="http://www.w3.org/2000/svg" viewBox="0 0 169.06 169.06">
    <title>instagram</title>
    <path class="cls-1" fill="currentColor"
          d="M122.41,0H46.65A46.71,46.71,0,0,0,0,46.65v75.75a46.71,46.71,0,0,0,46.65,46.65h75.75a46.71,46.71,0,0,0,46.66-46.65V46.65A46.71,46.71,0,0,0,122.41,0Z"/>
    <path class="cls-2" fill="#fff"
          d="M84.53,41a43.56,43.56,0,1,0,43.56,43.56A43.61,43.61,0,0,0,84.53,41Zm0,72.12a28.56,28.56,0,1,1,28.56-28.56A28.59,28.59,0,0,1,84.53,113.09Z"/>
    <path class="cls-2" fill="#fff" d="M139.92,28.25a11,11,0,1,0,7.78,3.22A11,11,0,0,0,139.92,28.25Z"/>
</svg>